Coordinates
version=1
nRows=16
nColumns=40
inDegrees=yes

Units are S.I. units (second, meters, Newtons, ...)
Angles are in degrees.

endheader
time	pelvis_tilt	pelvis_list	pelvis_rotation	pelvis_tx	pelvis_ty	pelvis_tz	hip_flexion_r	hip_adduction_r	hip_rotation_r	knee_angle_r	knee_angle_r_beta	ankle_angle_r	subtalar_angle_r	mtp_angle_r	hip_flexion_l	hip_adduction_l	hip_rotation_l	knee_angle_l	knee_angle_l_beta	ankle_angle_l	subtalar_angle_l	mtp_angle_l	lumbar_extension	lumbar_bending	lumbar_rotation	arm_flex_r	arm_add_r	arm_rot_r	elbow_flex_r	pro_sup_r	wrist_flex_r	wrist_dev_r	arm_flex_l	arm_add_l	arm_rot_l	elbow_flex_l	pro_sup_l	wrist_flex_l	wrist_dev_l
      0.85000000	     -1.86383378	     -0.67666329	      8.92566495	     -0.07641708	      0.87789390	      1.12995405	     27.18488693	     -3.06905576	    -15.80867359	    -26.72626791	     -0.46646137	     -1.10544824	     -8.28474619	      6.85764086	     -3.11330307	      3.50473293	      2.70498952	    -39.35883623	     -0.68694128	      1.83237524	      8.93130846	     -6.52386316	     -2.71425660	      1.44289946	    -10.94431172	     -7.70384720	     -6.68476074	    -18.05180862	     19.78263724	     89.95437384	      0.00000000	      0.00000000	      8.22364573	     13.24231913	     16.77271410	     46.38232035	     89.95437384	      0.00000000	      0.00000000
      0.86000000	     -1.79274792	     -1.01217326	      8.69251001	     -0.06490642	      0.87868146	      1.13143297	     26.57264104	     -2.31942290	    -15.30686453	    -27.02841967	     -0.47173491	     -0.61436809	     -8.36729166	      6.74014994	     -2.25283101	      4.03269971	      2.66678259	    -41.62926334	     -0.72656771	     -1.04021753	     10.07590917	     -5.94820053	     -2.55618718	      1.92860636	    -10.60952155	     -7.43054298	     -6.80630081	    -18.07307049	     19.39180677	     89.95437384	      0.00000000	      0.00000000	      7.41362792	     12.96002326	     16.91582574	     46.20995537	     89.95437384	      0.00000000	      0.00000000
      0.87000000	     -1.74969723	     -1.41914306	      8.50363177	     -0.05350479	      0.87948225	      1.13308142	     25.89917020	     -1.49354434	    -14.94585332	    -27.17516805	     -0.47429616	     -0.09447131	     -8.46441619	      6.69194906	     -1.16971624	      4.71917659	      2.75122353	    -44.02428494	     -0.76836872	     -4.57650310	     11.37917505	     -5.22590245	     -2.37141413	      2.44983982	    -10.32118597	     -7.15944517	     -6.90978252	    -18.13580889	     19.10328738	     89.95437384	      0.00000000	      0.00000000	      6.63328642	     12.64224476	     17.17973354	     45.90408608	     89.95437384	      0.00000000	      0.00000000
      0.88000000	     -1.75277982	     -1.78400261	      8.32922569	     -0.04255808	      0.88027558	      1.13481745	     25.22754331	     -0.73251058	    -14.68943611	    -27.23088824	     -0.47526866	      0.43775820	     -8.76174642	      6.82884790	      0.13564704	      5.37194035	      2.81564612	    -46.54851563	     -0.81242486	     -8.10633783	     12.32082690	     -4.34957844	     -2.21242977	      2.89197476	    -10.03966390	     -6.85196014	     -6.94427029	    -18.42409985	     18.95871934	     89.95437384	      0.00000000	      0.00000000	      5.90172094	     12.38425869	     17.32609320	     45.47322930	     89.95437384	      0.00000000	      0.00000000
      0.89000000	     -1.59787580	     -1.97221305	      8.16346489	     -0.03165015	      0.88137273	      1.13628264	     24.32374759	     -0.23584785	    -14.68924089	    -27.29442161	     -0.47637752	      1.26979257	     -8.69425027	      6.73025632	      1.21086215	      5.74942938	      2.61371790	    -48.84284031	     -0.85246838	    -11.51729961	     12.94999651	     -3.72634006	     -2.27575402	      3.16613904	     -9.64414719	     -6.53115453	     -7.03755725	    -18.45144056	     18.72793628	     89.95437384	      0.00000000	      0.00000000	      5.24726862	     12.14728954	     17.26140964	     45.04799143	     89.95437384	      0.00000000	      0.00000000
      0.90000000	     -1.58746545	     -2.17584735	      7.97929900	     -0.02134161	      0.88224569	      1.13779838	     23.55759530	      0.24022614	    -14.74528165	    -27.21870131	     -0.47505596	      1.90556941	     -8.34855086	      6.64753404	      2.56382278	      6.05611133	      2.25264576	    -51.26020022	     -0.89465927	    -13.94928845	     13.22206248	     -3.14547854	     -2.26133466	      3.42411587	     -9.25388536	     -6.20982810	     -7.09341162	    -18.58988835	     18.74527413	     89.95437384	      0.00000000	      0.00000000	      4.60484321	     11.88365058	     17.26642260	     44.57505184	     89.95437384	      0.00000000	      0.00000000
      0.91000000	     -1.47516989	     -2.22806418	      7.82552337	     -0.01134734	      0.88323400	      1.13914984	     22.66214334	      0.49886736	    -14.91994514	    -27.15555310	     -0.47395381	      2.57141038	     -7.94080376	      6.48873508	      3.82630957	      6.15545293	      1.88110409	    -53.63343750	     -0.93608007	    -15.31339697	     13.30384229	     -2.79461671	     -2.42016919	      3.52110796	     -8.88791469	     -5.81691164	     -7.13948332	    -18.59736692	     18.82166675	     89.95437384	      0.00000000	      0.00000000	      4.04227854	     11.69731007	     17.15585242	     44.01309440	     89.95437384	      0.00000000	      0.00000000
      0.92000000	     -1.77856973	     -2.65643877	      7.85100667	     -0.00182712	      0.88339970	      1.14045449	     22.23568544	      0.98589585	    -15.57342632	    -26.99031366	     -0.47106984	      3.23006225	     -7.02614714	      6.34150509	      5.88016762	      6.65611644	      1.43647577	    -56.35283091	     -0.98354244	    -15.54551227	     13.47782070	     -2.08126775	     -2.07592146	      3.96137442	     -8.63082544	     -5.54045124	     -7.19357136	    -18.77106206	     19.06666448	     89.95437384	      0.00000000	      0.00000000	      3.45740737	     11.39595135	     17.06994688	     43.42920697	     89.95437384	      0.00000000	      0.00000000
      0.93000000	     -1.62675048	     -2.78309798	      7.72366947	      0.00786949	      0.88434330	      1.14175645	     21.21190962	      1.34261931	    -15.73032745	    -26.73050299	     -0.46653529	      4.04779743	     -6.51373424	      6.13800297	      7.17495387	      6.89329214	      1.36555301	    -58.57804203	     -1.02237970	    -15.04974686	     14.18157733	     -1.80048599	     -2.29839997	      4.11239152	     -8.23782627	     -5.09022911	     -7.27556946	    -18.67277561	     19.17924164	     89.95437384	      0.00000000	      0.00000000	      2.99161109	     11.16411801	     16.96842404	     42.67015199	     89.95437384	      0.00000000	      0.00000000
      0.94000000	     -1.43943994	     -2.54334001	      7.42505259	      0.01735495	      0.88546274	      1.14308408	     20.21187103	      1.28231821	    -15.94359558	    -26.60320820	     -0.46431357	      4.38903529	     -6.22750667	      5.97745988	      8.27774188	      6.75566136	      1.59028608	    -60.43956981	     -1.05486949	    -14.73626031	     14.24653751	     -1.72418776	     -2.69704386	      3.85891549	     -7.64719243	     -4.69030618	     -7.30884289	    -18.51873155	     19.51079511	     89.95437384	      0.00000000	      0.00000000	      2.49393134	     10.91676219	     16.94499121	     42.10660800	     89.95437384	      0.00000000	      0.00000000
      0.95000000	     -1.43671055	     -3.12454216	      7.50461521	      0.02677653	      0.88606772	      1.14423658	     19.29329010	      2.08740386	    -16.25595200	    -26.06190132	     -0.45486599	      5.24853238	     -5.34689713	      5.71758540	     10.01165298	      7.48407721	      1.41823026	    -62.54843959	     -1.09167621	    -13.63964737	     15.83904419	     -1.36986503	     -2.66541398	      4.50032578	     -7.43446063	     -4.29864416	     -7.47195423	    -18.38015427	     19.84214514	     89.95437384	      0.00000000	      0.00000000	      2.08802004	     10.62098723	     16.78732375	     41.01386516	     89.95437384	      0.00000000	      0.00000000
      0.96000000	     -1.26961367	     -2.83454878	      7.23113758	      0.03607685	      0.88715540	      1.14559218	     18.31561147	      1.96851689	    -16.39907174	    -25.93060387	     -0.45257441	      5.48603800	     -5.10499873	      5.57464708	     11.21875142	      7.35531074	      1.81394286	    -64.07400421	     -1.11830234	    -13.41727333	     15.86717522	     -1.27770380	     -3.06329089	      4.15001934	     -6.89870249	     -3.84953465	     -7.48974353	    -18.19835058	     20.23723581	     89.95437384	      0.00000000	      0.00000000	      1.53412185	     10.48149213	     16.67267115	     40.42311710	     89.95437384	      0.00000000	      0.00000000
      0.97000000	     -1.48931306	     -3.07270083	      7.21766024	      0.04511934	      0.88747495	      1.14644288	     17.76656699	      2.24874770	    -16.82318967	    -25.67264681	     -0.44807221	      6.21429133	     -3.48656977	      3.42750887	     13.25273703	      7.51573460	      1.74790965	    -66.03802738	     -1.15258101	    -10.83790507	     15.99462676	     12.23801515	     -2.86345267	      4.38804525	     -6.57570468	     -3.62044549	     -7.71877850	    -17.66444469	     20.91933454	     89.95437384	      0.00000000	      0.00000000	      1.21619392	     10.19845000	     16.49450075	     39.15459047	     89.95437384	      0.00000000	      0.00000000
      0.98000000	     -1.33119319	     -2.95158769	      6.97349475	      0.05437416	      0.88853983	      1.14767728	     16.75689955	      2.39753219	    -16.62590478	    -25.38831389	     -0.44310967	      6.67984991	     -3.21248797	      3.28920179	     14.50027510	      7.46887242	      1.98556917	    -67.18565386	     -1.17261087	    -10.27233651	     16.31862876	     12.10512353	     -3.17794455	      4.24920235	     -6.04351955	     -3.14514436	     -7.80517461	    -17.53982121	     21.30786376	     89.95437384	      0.00000000	      0.00000000	      0.83420279	     10.02465591	     16.27156809	     38.10982738	     89.95437384	      0.00000000	      0.00000000
      0.99000000	     -1.25439895	     -2.82057294	      6.67557900	      0.06357063	      0.88941437	      1.14889929	     15.84352819	      2.51622222	    -16.42362867	    -25.10374278	     -0.43814297	      7.16394816	     -2.88781333	      3.12869459	     15.80060920	      7.36400247	      2.20834768	    -68.14834811	     -1.18941305	     -9.54230954	     16.51770168	     11.95806667	     -3.39766989	      4.07939529	     -5.46681904	     -2.72361439	     -7.92379499	    -17.31880117	     21.84622673	     89.95437384	      0.00000000	      0.00000000	      0.45658673	      9.84305297	     16.09761200	     37.02439989	     89.95437384	      0.00000000	      0.00000000
      1.00000000	     -1.16233671	     -2.53517992	      6.37745256	      0.07263112	      0.89025401	      1.14979288	     15.00124663	      2.37017564	    -16.40609729	    -25.01888163	     -0.43666186	      7.33863654	     -2.78842190	      3.03530280	     17.06806791	      7.12091527	      2.61278649	    -68.88672205	     -1.20230011	     -9.03618603	     16.30967461	     11.72238828	     -3.68615235	      3.74311437	     -5.03722556	     -2.20667863	     -8.03049317	    -17.17344280	     22.37940812	     89.95437384	      0.00000000	      0.00000000	     -0.15085164	      9.69756012	     15.99662755	     36.31315700	     89.95437384	      0.00000000	      0.00000000
